<?xml version="1.0" encoding="UTF-8" standalone="no"?><svg xmlns="http://www.w3.org/2000/svg" xmlns:xlink="http://www.w3.org/1999/xlink" contentScriptType="application/ecmascript" contentStyleType="text/css" height="439px" preserveAspectRatio="none" style="width:678px;height:439px;" version="1.1" viewBox="0 0 678 439" width="678px" zoomAndPan="magnify"><defs><filter height="300%" id="f152d2vgl51jgf" width="300%" x="-1" y="-1"><feGaussianBlur result="blurOut" stdDeviation="2.0"/><feColorMatrix in="blurOut" result="blurOut2" type="matrix" values="0 0 0 0 0 0 0 0 0 0 0 0 0 0 0 0 0 0 .4 0"/><feOffset dx="4.0" dy="4.0" in="blurOut2" result="blurOut3"/><feBlend in="SourceGraphic" in2="blurOut3" mode="normal"/></filter></defs><g><line style="stroke: #A80036; stroke-width: 1.0; stroke-dasharray: 5.0,5.0;" x1="30" x2="30" y1="86.2969" y2="352.3594"/><line style="stroke: #A80036; stroke-width: 1.0; stroke-dasharray: 5.0,5.0;" x1="99" x2="99" y1="86.2969" y2="352.3594"/><line style="stroke: #A80036; stroke-width: 1.0; stroke-dasharray: 5.0,5.0;" x1="261.5" x2="261.5" y1="86.2969" y2="352.3594"/><line style="stroke: #A80036; stroke-width: 1.0; stroke-dasharray: 5.0,5.0;" x1="438.5" x2="438.5" y1="86.2969" y2="352.3594"/><line style="stroke: #A80036; stroke-width: 1.0; stroke-dasharray: 5.0,5.0;" x1="589.5" x2="589.5" y1="86.2969" y2="352.3594"/><text fill="#000000" font-family="sans-serif" font-size="14" lengthAdjust="spacingAndGlyphs" textLength="39" x="8" y="82.9951">Client</text><ellipse cx="30.5" cy="13" fill="#FEFECE" filter="url(#f152d2vgl51jgf)" rx="8" ry="8" style="stroke: #A80036; stroke-width: 2.0;"/><path d="M30.5,21 L30.5,48 M17.5,29 L43.5,29 M30.5,48 L17.5,63 M30.5,48 L43.5,63 " fill="none" filter="url(#f152d2vgl51jgf)" style="stroke: #A80036; stroke-width: 2.0;"/><text fill="#000000" font-family="sans-serif" font-size="14" lengthAdjust="spacingAndGlyphs" textLength="39" x="8" y="364.3545">Client</text><ellipse cx="30.5" cy="377.6563" fill="#FEFECE" filter="url(#f152d2vgl51jgf)" rx="8" ry="8" style="stroke: #A80036; stroke-width: 2.0;"/><path d="M30.5,385.6563 L30.5,412.6563 M17.5,393.6563 L43.5,393.6563 M30.5,412.6563 L17.5,427.6563 M30.5,412.6563 L43.5,427.6563 " fill="none" filter="url(#f152d2vgl51jgf)" style="stroke: #A80036; stroke-width: 2.0;"/><rect fill="#FEFECE" filter="url(#f152d2vgl51jgf)" height="30.2969" style="stroke: #A80036; stroke-width: 1.5;" width="61" x="67" y="51"/><text fill="#000000" font-family="sans-serif" font-size="14" lengthAdjust="spacingAndGlyphs" textLength="47" x="74" y="70.9951">Mailing</text><rect fill="#FEFECE" filter="url(#f152d2vgl51jgf)" height="30.2969" style="stroke: #A80036; stroke-width: 1.5;" width="61" x="67" y="351.3594"/><text fill="#000000" font-family="sans-serif" font-size="14" lengthAdjust="spacingAndGlyphs" textLength="47" x="74" y="371.3545">Mailing</text><rect fill="#FEFECE" filter="url(#f152d2vgl51jgf)" height="30.2969" style="stroke: #A80036; stroke-width: 1.5;" width="70" x="224.5" y="51"/><text fill="#000000" font-family="sans-serif" font-size="14" lengthAdjust="spacingAndGlyphs" textLength="56" x="231.5" y="70.9951">Website</text><rect fill="#FEFECE" filter="url(#f152d2vgl51jgf)" height="30.2969" style="stroke: #A80036; stroke-width: 1.5;" width="70" x="224.5" y="351.3594"/><text fill="#000000" font-family="sans-serif" font-size="14" lengthAdjust="spacingAndGlyphs" textLength="56" x="231.5" y="371.3545">Website</text><rect fill="#FEFECE" filter="url(#f152d2vgl51jgf)" height="30.2969" style="stroke: #A80036; stroke-width: 1.5;" width="114" x="379.5" y="51"/><text fill="#000000" font-family="sans-serif" font-size="14" lengthAdjust="spacingAndGlyphs" textLength="100" x="386.5" y="70.9951">Azure function</text><rect fill="#FEFECE" filter="url(#f152d2vgl51jgf)" height="30.2969" style="stroke: #A80036; stroke-width: 1.5;" width="114" x="379.5" y="351.3594"/><text fill="#000000" font-family="sans-serif" font-size="14" lengthAdjust="spacingAndGlyphs" textLength="100" x="386.5" y="371.3545">Azure function</text><rect fill="#FEFECE" filter="url(#f152d2vgl51jgf)" height="30.2969" style="stroke: #A80036; stroke-width: 1.5;" width="160" x="507.5" y="51"/><text fill="#000000" font-family="sans-serif" font-size="14" lengthAdjust="spacingAndGlyphs" textLength="146" x="514.5" y="70.9951">Azure queue storage</text><rect fill="#FEFECE" filter="url(#f152d2vgl51jgf)" height="30.2969" style="stroke: #A80036; stroke-width: 1.5;" width="160" x="507.5" y="351.3594"/><text fill="#000000" font-family="sans-serif" font-size="14" lengthAdjust="spacingAndGlyphs" textLength="146" x="514.5" y="371.3545">Azure queue storage</text><polygon fill="#A80036" points="87.5,113.4297,97.5,117.4297,87.5,121.4297,91.5,117.4297" style="stroke: #A80036; stroke-width: 1.0;"/><line style="stroke: #A80036; stroke-width: 1.0;" x1="30.5" x2="93.5" y1="117.4297" y2="117.4297"/><text fill="#000000" font-family="sans-serif" font-size="13" font-weight="bold" lengthAdjust="spacingAndGlyphs" textLength="9" x="37.5" y="112.3638">1</text><text fill="#000000" font-family="sans-serif" font-size="13" lengthAdjust="spacingAndGlyphs" textLength="32" x="50.5" y="112.3638">open</text><polygon fill="#A80036" points="249.5,142.5625,259.5,146.5625,249.5,150.5625,253.5,146.5625" style="stroke: #A80036; stroke-width: 1.0;"/><line style="stroke: #A80036; stroke-width: 1.0;" x1="99.5" x2="255.5" y1="146.5625" y2="146.5625"/><text fill="#000000" font-family="sans-serif" font-size="13" font-weight="bold" lengthAdjust="spacingAndGlyphs" textLength="9" x="106.5" y="141.4966">2</text><text fill="#000000" font-family="sans-serif" font-size="13" lengthAdjust="spacingAndGlyphs" textLength="125" x="119.5" y="141.4966">afmelden met code</text><polygon fill="#A80036" points="426.5,171.6953,436.5,175.6953,426.5,179.6953,430.5,175.6953" style="stroke: #A80036; stroke-width: 1.0;"/><line style="stroke: #A80036; stroke-width: 1.0;" x1="261.5" x2="432.5" y1="175.6953" y2="175.6953"/><text fill="#000000" font-family="sans-serif" font-size="13" font-weight="bold" lengthAdjust="spacingAndGlyphs" textLength="9" x="268.5" y="170.6294">3</text><text fill="#000000" font-family="sans-serif" font-size="13" lengthAdjust="spacingAndGlyphs" textLength="75" x="281.5" y="170.6294">afmeldcode</text><polygon fill="#A80036" points="577.5,200.8281,587.5,204.8281,577.5,208.8281,581.5,204.8281" style="stroke: #A80036; stroke-width: 1.0;"/><line style="stroke: #A80036; stroke-width: 1.0;" x1="438.5" x2="583.5" y1="204.8281" y2="204.8281"/><text fill="#000000" font-family="sans-serif" font-size="13" font-weight="bold" lengthAdjust="spacingAndGlyphs" textLength="9" x="445.5" y="199.7622">4</text><text fill="#000000" font-family="sans-serif" font-size="13" lengthAdjust="spacingAndGlyphs" textLength="75" x="458.5" y="199.7622">afmeldcode</text><polygon fill="#A80036" points="449.5,229.9609,439.5,233.9609,449.5,237.9609,445.5,233.9609" style="stroke: #A80036; stroke-width: 1.0;"/><line style="stroke: #A80036; stroke-width: 1.0; stroke-dasharray: 2.0,2.0;" x1="443.5" x2="588.5" y1="233.9609" y2="233.9609"/><text fill="#000000" font-family="sans-serif" font-size="13" font-weight="bold" lengthAdjust="spacingAndGlyphs" textLength="9" x="455.5" y="228.895">5</text><text fill="#000000" font-family="sans-serif" font-size="13" lengthAdjust="spacingAndGlyphs" textLength="88" x="468.5" y="228.895">geaccepteerd</text><polygon fill="#A80036" points="272.5,259.0938,262.5,263.0938,272.5,267.0938,268.5,263.0938" style="stroke: #A80036; stroke-width: 1.0;"/><line style="stroke: #A80036; stroke-width: 1.0; stroke-dasharray: 2.0,2.0;" x1="266.5" x2="437.5" y1="263.0938" y2="263.0938"/><text fill="#000000" font-family="sans-serif" font-size="13" font-weight="bold" lengthAdjust="spacingAndGlyphs" textLength="9" x="278.5" y="258.0278">6</text><text fill="#000000" font-family="sans-serif" font-size="13" lengthAdjust="spacingAndGlyphs" textLength="88" x="291.5" y="258.0278">geaccepteerd</text><line style="stroke: #A80036; stroke-width: 1.0;" x1="261.5" x2="303.5" y1="292.2266" y2="292.2266"/><line style="stroke: #A80036; stroke-width: 1.0;" x1="303.5" x2="303.5" y1="292.2266" y2="305.2266"/><line style="stroke: #A80036; stroke-width: 1.0;" x1="262.5" x2="303.5" y1="305.2266" y2="305.2266"/><polygon fill="#A80036" points="272.5,301.2266,262.5,305.2266,272.5,309.2266,268.5,305.2266" style="stroke: #A80036; stroke-width: 1.0;"/><text fill="#000000" font-family="sans-serif" font-size="13" font-weight="bold" lengthAdjust="spacingAndGlyphs" textLength="9" x="268.5" y="287.1606">7</text><text fill="#000000" font-family="sans-serif" font-size="13" lengthAdjust="spacingAndGlyphs" textLength="150" x="281.5" y="287.1606">doorsturen naar pagina</text><polygon fill="#A80036" points="41.5,330.3594,31.5,334.3594,41.5,338.3594,37.5,334.3594" style="stroke: #A80036; stroke-width: 1.0;"/><line style="stroke: #A80036; stroke-width: 1.0;" x1="35.5" x2="260.5" y1="334.3594" y2="334.3594"/><text fill="#000000" font-family="sans-serif" font-size="13" font-weight="bold" lengthAdjust="spacingAndGlyphs" textLength="9" x="47.5" y="329.2935">8</text><text fill="#000000" font-family="sans-serif" font-size="13" lengthAdjust="spacingAndGlyphs" textLength="73" x="60.5" y="329.2935">bevestiging</text><!--
@startuml

autonumber
actor Client
participant Mailing
participant Website
participant "Azure function" as AF
participant "Azure queue storage" as AQ

Client -> Mailing : open
Mailing -> Website : afmelden met code
Website -> AF : afmeldcode 
AF -> AQ : afmeldcode 
AQ - -> AF : geaccepteerd
AF - -> Website : geaccepteerd
Website -> Website : doorsturen naar pagina
Website -> Client : bevestiging

@enduml

PlantUML version 1.2019.06(Fri May 24 17:10:25 UTC 2019)
(GPL source distribution)
Java Runtime: OpenJDK Runtime Environment
JVM: OpenJDK 64-Bit Server VM
Java Version: 11.0.14.1+1
Operating System: Linux
OS Version: 5.13.0-1022-azure
Default Encoding: UTF-8
Language: en
Country: null
--></g></svg>