<?xml version="1.0" encoding="UTF-8" standalone="no"?><svg xmlns="http://www.w3.org/2000/svg" xmlns:xlink="http://www.w3.org/1999/xlink" contentScriptType="application/ecmascript" contentStyleType="text/css" height="1165px" preserveAspectRatio="none" style="width:1046px;height:1165px;" version="1.1" viewBox="0 0 1046 1165" width="1046px" zoomAndPan="magnify"><defs><filter height="300%" id="f1o7l09jqsl6d4" width="300%" x="-1" y="-1"><feGaussianBlur result="blurOut" stdDeviation="2.0"/><feColorMatrix in="blurOut" result="blurOut2" type="matrix" values="0 0 0 0 0 0 0 0 0 0 0 0 0 0 0 0 0 0 .4 0"/><feOffset dx="4.0" dy="4.0" in="blurOut2" result="blurOut3"/><feBlend in="SourceGraphic" in2="blurOut3" mode="normal"/></filter></defs><g><!--cluster KBNL--><path d="M42.7345,440.2372 C54.4852,420.1756 71.2536,419.3173 84.7038,438.4157 C99.757,415.7671 118.2042,418.792 130.3454,441.3553 C140.0735,414.7628 160.252,413.2279 176.3642,435.3209 C189.2242,415.5076 209.6734,416.8908 222.333,435.5602 C235.7228,416.1608 254.7215,411.6415 267.5039,436.1846 C282.3207,413.6563 299.7172,410.626 314.6254,436.0949 C326.475,415.0026 342.4621,415.6272 356.0154,434.3225 C373.1247,413.2063 386.3455,415.4754 399.9942,437.8239 C412.2942,415.2213 428.8964,420.049 441.3372,437.6793 C461.8414,418.2796 480.5808,415.2 493,446 C496.4638,445.8523 497.7811,447.3827 496.8332,450.7759 C522.0282,463.5413 526.9144,482.3312 501.9082,500.2466 C517.7956,513.916 516.6251,532.9397 496.9544,542.4337 C520.3033,554.8349 525.3753,570.8852 504.3043,590.1313 C524.7765,607.2623 530.0785,626.9116 501.9876,641.868 C524.0339,656.5872 523.4352,670.369 503.0993,686.1522 C524.0295,700.2966 528.8065,723.7428 502.9538,737.7553 C527.126,751.183 526.7282,767.4754 506.1962,784.035 C530.0235,794.5508 528.8426,819.4172 510.0643,833.2796 C525.3334,847.9528 525.451,868.3514 501.8955,875.5155 C527.7907,890.7556 529.2028,914.458 500.1614,927.8788 C522.0895,937.9266 522.0437,956.7839 501.5626,968.3018 C531.8796,983.1255 529.1319,1004.6427 504.3208,1022.2831 C519.883,1037.0024 521.094,1054.9727 497.468,1063.1151 C522.6032,1085.5769 517.1024,1106.5069 486,1117 C488.688,1114.375 491.4902,1115.2026 492.1886,1118.9363 C478.6368,1142.0951 460.6895,1143.7395 443.6902,1122.7212 C430.0852,1141.453 414.8807,1143.5145 401.0456,1122.971 C389.8295,1143.2854 370.4876,1143.1526 358.0885,1124.2674 C345.1061,1147.9194 323.5728,1150.3056 306.6336,1128.7734 C296.1944,1147.113 279.7456,1146.6653 269.8647,1128.2155 C253.9016,1150.5611 235.8223,1153.9458 217.73,1130.6473 C200.5877,1149.8813 184.9619,1148.5282 171.9218,1126.1333 C157.153,1144.9169 143.2631,1150.1254 128.2208,1126.4146 C115.0231,1147.602 96.7305,1144.6472 85.0281,1124.8391 C58.4098,1149.9742 40.5152,1144.5802 30,1110 C35.0965,1110.7671 35.7115,1113.4406 33.1824,1117.4606 C10.158,1099.6376 11.2191,1081.2185 35.1481,1065.1603 C14.3554,1054.0358 12.986,1032.2487 30.9091,1017.6685 C9.68,1003.6563 9.0846,978.8671 34.4734,968.2146 C12.9415,956.6451 12.0088,936.4981 30.5566,921.5635 C7.0552,911.5695 6.5334,894.0669 27.2067,880.4716 C2.2941,864.6386 3.4424,846.2442 29.2942,832.6259 C4.0649,822.0372 0.1391,797.908 22.9968,781.407 C2.5256,765.2142 8.1368,748.7583 29.1812,738.5573 C6.9235,720.2384 7.9863,699.7962 32.0436,683.903 C11.7635,672.1043 11.971,654.463 30.1796,640.9925 C6.1017,622.9623 11.8431,603.4915 35.1132,590.0463 C9.4957,574.1547 13.1269,558.6595 33.3812,541.1432 C10.349,527.3122 10.7637,510.3992 33.0952,496.2791 C11.0083,478.6294 12.4656,453.4715 37,439 C39.6033,436.623 41.3731,436.8579 42.7345,440.2372 " fill="#FFFFFF" style="stroke: #000000; stroke-width: 1.5;"/><text fill="#000000" font-family="sans-serif" font-size="14" font-weight="bold" lengthAdjust="spacingAndGlyphs" textLength="41" x="241" y="456.9951">KBNL</text><!--cluster ISHV--><polygon fill="#FFFFFF" filter="url(#f1o7l09jqsl6d4)" points="54,482,191,482,198,504.2969,469,504.2969,469,993,54,993,54,482" style="stroke: #000000; stroke-width: 1.5;"/><line style="stroke: #000000; stroke-width: 1.5;" x1="54" x2="198" y1="504.2969" y2="504.2969"/><text fill="#000000" font-family="sans-serif" font-size="14" font-weight="bold" lengthAdjust="spacingAndGlyphs" textLength="131" x="58" y="496.9951">Interactieve SHV</text><text fill="#000000" font-family="sans-serif" font-size="14" font-style="italic" lengthAdjust="spacingAndGlyphs" textLength="83" x="224" y="519.292">«container»</text><!--cluster Azure--><path d="M189.2252,36.496 C205.4905,11.0449 229.363,3.6903 249.2115,32.5374 C266.1788,5.8666 291.8017,5.1743 306.5473,34.8001 C320.4177,11.4575 342.6654,12.9062 354.5752,36.7937 C369.7499,0.5828 392.4236,-4.936 419.1344,25.6429 C441.1892,-2.7638 460.1769,-3.5625 477.7871,29.8593 C492.133,-3.7234 513.2992,1.7498 534.7635,22.3777 C553.6934,-6.3901 574.0784,-6.7168 593.0837,22.3015 C612.3961,-0.2813 630.4944,-6.4529 649.4224,22.72 C669.8614,-1.3987 692.6409,2.2893 702.9199,32.6896 C718.5615,-0.0492 740.2547,-1.9813 762.81,25.854 C781.7703,-2.2184 803.1412,-0.8384 818.7322,29.1019 C837.4954,4.9136 865.829,3.9538 876.2996,37.3868 C891.6715,11.2647 913.9774,11.0158 932.5417,33.7087 C950.2121,8.6847 979.1891,9.4178 992,39 C994.7759,36.3845 998.0808,37.6252 998.9174,41.1757 C1022.9824,58.0589 1025.026,79.2999 996.5071,93.7735 C1029.5696,112.345 1024.8006,138.98 996.3111,157.3618 C1022.9802,166.0242 1026.7062,191.03 1005.552,208.3583 C1029.6707,229.6737 1034.6815,248.564 1003.4942,267.9702 C1030.4801,283.813 1023.8293,309.0621 1000.6055,322.2318 C1021.8931,343.7296 1014.5984,367.8418 985,374 C987.3635,370.2811 991.0325,370.125 993.2122,374.1938 C979.8735,401.0167 952.8289,399.6434 938.0116,375.8048 C925.334,409.9578 896.7344,411.7711 874.9633,385.2549 C853.6833,414.9576 827.8541,404.61 813.9431,377.3596 C798.9881,403.1891 783.5015,411.2984 759.7539,386.8329 C735.9851,413.3193 717.1227,410.0377 699.5421,380.2157 C684.9419,407.6002 664.3857,411.7883 643.3581,387.1583 C629.3803,411.6052 605.8942,413.9588 591.1331,387.9694 C572.995,411.6049 552.8236,415.0112 535.6203,386.9653 C520.9045,420.4029 490.8235,412.2047 475.0771,388.0488 C455.9049,409.114 430.6374,406.5817 420.7809,377.8844 C403.6928,407.4262 380.4592,409.1149 358.6653,383.1505 C339.0367,410.4074 321.3056,408.3531 301.0681,383.8277 C278.4398,410.8948 259.7732,404.7522 245.7877,375.3647 C220.6649,411.1022 191.0249,408.2553 175,367 C177.2072,368.1361 176.9981,369.7548 175.4137,371.2593 C149.4076,356.3382 150.1988,331.8384 176.362,317.8435 C148.7385,301.0838 147.7042,274.5635 178.1586,259.5952 C152.9454,240.7902 160.3578,219.481 183.894,205.8814 C157.7307,188.6649 154.3505,170.0724 180.6993,149.8612 C158.9445,135.3461 160.8614,114.2245 183.4802,102.3042 C146.3066,85.2972 153.1378,50.3973 182,32 C186.8714,29.7172 188.6079,31.9422 189.2252,36.496 " fill="#FFFFFF" style="stroke: #000000; stroke-width: 1.5;"/><text fill="#000000" font-family="sans-serif" font-size="14" font-style="italic" lengthAdjust="spacingAndGlyphs" textLength="47" x="560" y="49.9951">«kbnl»</text><text fill="#000000" font-family="sans-serif" font-size="14" font-weight="bold" lengthAdjust="spacingAndGlyphs" textLength="47" x="560" y="66.292">Azure</text><!--cluster Website--><path d="M542.1965,499.6748 C543.7125,494.5236 548.671,493.7882 552.0834,497.5775 C556.0388,492.4393 560.586,492.9675 564.0129,498.1862 C566.6019,491.7503 570.9904,490.0188 576.316,495.3168 C579.7976,491.2973 583.7037,491.2678 586.4703,496.134 C589.7887,490.1721 594.126,490.3768 598.1221,495.4161 C602.3846,489.5413 606.6108,489.8284 610.3976,495.9047 C613.8418,491.2109 618.1226,490.1287 621.5398,495.9334 C625.4477,491.0278 630.1901,491.0472 632.9455,497.1298 C637.158,492.3681 641.1486,492.4962 643.579,498.8368 C651.542,493.6882 658.4147,494.9478 661,505 C661.2277,504.8295 661.4038,504.8704 661.4681,505.1646 C668.9872,508.0964 667.8929,514.84 662.4439,518.7062 C667.7107,522.2305 667.6551,525.7951 663.3937,530.1128 C668.4794,532.6785 669.4868,537.5628 663.9666,540.7024 C670.345,543.7943 671.3198,550.1061 664.7131,553.9308 C669.3508,558.7788 669.3502,562.5147 663.151,565.9548 C669.4411,569.3402 668.819,574.3834 663.3243,577.9392 C667.2882,581.4906 668.1291,585.9752 662.1925,588.4619 C667.9999,598.4115 664.4921,604.2536 654,607 C654.6074,606.0559 655.5874,606.1546 656.0175,607.1815 C652.8413,613.3774 649.2606,614.0089 644.548,608.7153 C640.5864,615.1385 634.9202,613.4361 631.7234,607.8955 C629.655,613.2661 624.8941,612.7308 621.8597,608.935 C617.449,614.9611 612.4847,614.7812 608.4223,608.5531 C605.5324,613.3312 602.1782,613.9342 598.03,610.0652 C594.1874,615.1752 588.9017,613.9847 586.402,608.5801 C582.8431,614.4488 579.5301,614.2295 575.5913,608.9485 C571.9856,614.19 567.738,614.762 564.3224,608.7581 C560.6549,613.9942 556.1889,614.0347 552.5686,608.7056 C543.8793,614.8267 534.1813,610.7556 533,600 C533.2281,599.8676 533.4237,599.969 533.4535,600.2292 C528.6007,597.8054 527.5856,593.1532 532.7158,590.0089 C526.207,586.4098 527.1664,580.6609 532.4783,576.8485 C526.9482,573.7893 526.172,568.8866 531.9784,565.3351 C526.3659,562.2131 526.46,558.0657 531.4025,554.3884 C525.8123,549.0355 526.6156,545.3979 533.6165,542.3632 C528.3594,538.4424 527.101,533.9016 533.8177,530.1786 C527.9836,527.206 527.4528,520.9546 533.4516,517.6365 C525.9531,508.1076 527.8528,500.9773 540,498 C541.6599,497.3952 542.3284,497.9295 542.1965,499.6748 " fill="#FFFFFF" style="stroke: #000000; stroke-width: 1.5;"/><text fill="#000000" font-family="sans-serif" font-size="14" font-style="italic" lengthAdjust="spacingAndGlyphs" textLength="71" x="561.5" y="515.9951">«kbnkl.nl»</text><text fill="#000000" font-family="sans-serif" font-size="14" font-weight="bold" lengthAdjust="spacingAndGlyphs" textLength="64" x="565" y="532.292">Website</text><!--cluster Github--><path d="M708.2251,509.8527 C711.9725,501.6285 719.7508,499.3226 725.359,507.9619 C731.207,502.0119 737.094,502.4098 741.2913,509.9163 C744.2435,502.7125 751.6787,500.0562 756.7704,507.6833 C760.8215,499.7185 768.8798,496.6364 774.9257,505.5358 C778.1415,498.2597 785.2461,498.2047 789.9381,503.8163 C795.6118,495.2366 802.3974,497.9813 806.7139,505.2526 C812.2861,499.1958 820.0094,498.4587 823.0745,507.8993 C827.8489,501.4844 833.8102,501.4264 837.6094,508.9186 C843.1559,501.7341 850.4418,500.2743 854.9278,510.0044 C863.4938,501.8501 872.834,505.1756 876,516 C876.6132,516.2396 876.7799,516.7715 876.1918,517.2027 C884.5743,520.2572 883.9074,528.1817 877.92,532.8257 C885.5476,538.1159 885.5712,543.2077 877.895,548.4735 C887.2368,552.0478 886.3268,558.4977 880.7249,564.6812 C886.3916,569.279 885.9455,574.5518 880.0183,578.5592 C888.4404,582.3657 889.2204,589.3296 881.0517,594.2301 C889.7072,598.3426 890.245,602.888 883.012,609.0957 C890.095,615.0692 890.1483,620.8325 882.2015,626.0891 C888.2659,629.843 889.3683,636.4269 882.546,640.4891 C889.8548,645.5625 889.4544,652.9014 881.0546,656.5128 C887.7773,661.2738 885.2865,667.4449 878.9589,670.2091 C886.0613,674.2175 887.1242,679.6408 880.5733,685.1267 C887.7813,690.9161 885.9258,699.4476 877.4933,702.4573 C885.6978,707.5089 885.9007,712.6879 877.497,717.7436 C882.4647,728.0264 881.3064,734.6466 869,737.5 C870.7292,736.8803 871.6738,737.9288 871.5878,739.574 C865.8445,748.6372 859.844,747.6275 854.0497,739.6264 C850.4293,748.7179 843.2439,748.3101 837.5056,741.8844 C832.3327,750.1805 826.3367,749.2643 821.9672,741.1248 C817.6675,749.5742 811.1537,749.4105 805.1773,743.022 C801.535,749.6859 794.6896,749.9554 790.23,743.9893 C783.8588,752.1423 777.335,750.5486 773.5482,741.4851 C768.0141,747.8582 762.8575,749.3785 758.0885,740.6993 C754.2461,748.1748 747.0251,748.0904 742.8512,741.0472 C737.404,749.2615 730.4244,749.474 725.6598,740.3695 C713.67,748.6636 703.1808,746.7144 701,730.5 C702.4768,729.7947 703.5655,730.6744 703.4685,732.2234 C695.4608,729.0976 694.7798,724.5227 700.0744,718.1815 C690.2251,713.8756 692.3104,705.392 699.3077,700.3613 C690.4253,696.6693 690.9491,689.5963 698.1698,684.7319 C691.2235,681.2123 689.7828,677.0573 695.7366,671.2154 C688.4833,668.2231 686.6475,661.8409 692.9537,656.316 C684.2663,651.4906 685.3691,644.2539 692.8144,639.2965 C684.7488,636.0936 685.6733,630.4791 691.0263,625.533 C682.6013,619.6769 685.0378,611.5874 693.798,608.5332 C687.4719,603.4728 685.3657,598.4648 693.5885,593.2056 C688.2185,587.8671 687.8137,582.9068 695.4903,579.3605 C688.5613,572.6157 690.5603,567.9916 698.3404,563.9709 C691.7023,557.4748 692.6541,551.697 700.5788,547.1374 C692.3919,543.3401 692.1198,535.786 699.9461,531.3471 C693.0725,520.7699 693.8091,511.9856 708,509 C708.4772,509.134 708.5609,509.504 708.2251,509.8527 " fill="#FFFFFF" style="stroke: #000000; stroke-width: 1.5;"/><text fill="#000000" font-family="sans-serif" font-size="14" font-style="italic" lengthAdjust="spacingAndGlyphs" textLength="175" x="701" y="526.9951">«kredietbank-nederland»</text><text fill="#000000" font-family="sans-serif" font-size="14" font-weight="bold" lengthAdjust="spacingAndGlyphs" textLength="52" x="762.5" y="543.292">Github</text><!--entity Sophion--><path d="M172.5,1074 C172.5,1064 211,1064 211,1064 C211,1064 249.5,1064 249.5,1074 L249.5,1099.2969 C249.5,1109.2969 211,1109.2969 211,1109.2969 C211,1109.2969 172.5,1109.2969 172.5,1099.2969 L172.5,1074 " fill="#FEFECE" filter="url(#f1o7l09jqsl6d4)" style="stroke: #000000; stroke-width: 1.5;"/><path d="M172.5,1074 C172.5,1084 211,1084 211,1084 C211,1084 249.5,1084 249.5,1074 " fill="none" style="stroke: #000000; stroke-width: 1.5;"/><text fill="#000000" font-family="sans-serif" font-size="14" lengthAdjust="spacingAndGlyphs" textLength="57" x="182.5" y="1100.9951">Sophion</text><!--entity Allegro--><path d="M317.5,1074 C317.5,1064 351,1064 351,1064 C351,1064 384.5,1064 384.5,1074 L384.5,1099.2969 C384.5,1109.2969 351,1109.2969 351,1109.2969 C351,1109.2969 317.5,1109.2969 317.5,1099.2969 L317.5,1074 " fill="#FEFECE" filter="url(#f1o7l09jqsl6d4)" style="stroke: #000000; stroke-width: 1.5;"/><path d="M317.5,1074 C317.5,1084 351,1084 351,1084 C351,1084 384.5,1084 384.5,1074 " fill="none" style="stroke: #000000; stroke-width: 1.5;"/><text fill="#000000" font-family="sans-serif" font-size="14" lengthAdjust="spacingAndGlyphs" textLength="47" x="327.5" y="1100.9951">Allegro</text><!--entity APP--><rect fill="#FEFECE" filter="url(#f1o7l09jqsl6d4)" height="52.5938" style="stroke: #A80036; stroke-width: 1.5;" width="155" x="228.5" y="797"/><rect fill="#FEFECE" height="5" style="stroke: #A80036; stroke-width: 1.5;" width="10" x="223.5" y="802"/><rect fill="#FEFECE" height="5" style="stroke: #A80036; stroke-width: 1.5;" width="10" x="223.5" y="839.5938"/><text fill="#000000" font-family="sans-serif" font-size="14" font-style="italic" lengthAdjust="spacingAndGlyphs" textLength="93" x="259.5" y="819.9951">«.net core 6»</text><text fill="#000000" font-family="sans-serif" font-size="14" lengthAdjust="spacingAndGlyphs" textLength="135" x="238.5" y="836.292">Console application</text><!--entity SMTP--><ellipse cx="428" cy="823.5" fill="#FEFECE" filter="url(#f1o7l09jqsl6d4)" rx="8" ry="8" style="stroke: #A80036; stroke-width: 2.0;"/><text fill="#000000" font-family="sans-serif" font-size="14" lengthAdjust="spacingAndGlyphs" textLength="39" x="408.5" y="853.4951">SMTP</text><!--entity ILogger--><ellipse cx="170" cy="823.5" fill="#FEFECE" filter="url(#f1o7l09jqsl6d4)" rx="8" ry="8" style="stroke: #A80036; stroke-width: 2.0;"/><text fill="#000000" font-family="sans-serif" font-size="14" lengthAdjust="spacingAndGlyphs" textLength="51" x="144.5" y="853.4951">ILogger</text><!--entity DA--><ellipse cx="306" cy="940" fill="#FEFECE" filter="url(#f1o7l09jqsl6d4)" rx="8" ry="8" style="stroke: #A80036; stroke-width: 2.0;"/><text fill="#000000" font-family="sans-serif" font-size="14" lengthAdjust="spacingAndGlyphs" textLength="114" x="249" y="969.9951">Entity framework</text><!--entity ASQ--><ellipse cx="352" cy="707" fill="#FEFECE" filter="url(#f1o7l09jqsl6d4)" rx="8" ry="8" style="stroke: #A80036; stroke-width: 2.0;"/><text fill="#000000" font-family="sans-serif" font-size="14" lengthAdjust="spacingAndGlyphs" textLength="154" x="275" y="736.9951">Azure storage queues</text><!--entity AIC--><rect fill="#FEFECE" filter="url(#f1o7l09jqsl6d4)" height="36.2969" style="stroke: #A80036; stroke-width: 1.5;" width="153" x="78.5" y="689"/><rect fill="#FEFECE" height="5" style="stroke: #A80036; stroke-width: 1.5;" width="10" x="73.5" y="694"/><rect fill="#FEFECE" height="5" style="stroke: #A80036; stroke-width: 1.5;" width="10" x="73.5" y="715.2969"/><text fill="#000000" font-family="sans-serif" font-size="14" lengthAdjust="spacingAndGlyphs" textLength="133" x="88.5" y="711.9951">Application insights</text><!--entity KBNL_Http--><ellipse cx="352" cy="570" fill="#FEFECE" filter="url(#f1o7l09jqsl6d4)" rx="8" ry="8" style="stroke: #A80036; stroke-width: 2.0;"/><text fill="#000000" font-family="sans-serif" font-size="14" lengthAdjust="spacingAndGlyphs" textLength="36" x="334" y="599.9951">https</text><!--entity AI--><rect fill="#FEFECE" filter="url(#f1o7l09jqsl6d4)" height="52.5938" style="stroke: #A80036; stroke-width: 1.5;" width="153" x="830.5" y="191.5"/><rect fill="#FEFECE" height="5" style="stroke: #A80036; stroke-width: 1.5;" width="10" x="825.5" y="196.5"/><rect fill="#FEFECE" height="5" style="stroke: #A80036; stroke-width: 1.5;" width="10" x="825.5" y="234.0938"/><text fill="#000000" font-family="sans-serif" font-size="14" font-style="italic" lengthAdjust="spacingAndGlyphs" textLength="104" x="855" y="214.4951">«kbnl-insights»</text><text fill="#000000" font-family="sans-serif" font-size="14" lengthAdjust="spacingAndGlyphs" textLength="133" x="840.5" y="230.792">Application insights</text><!--entity SA--><rect fill="#FEFECE" filter="url(#f1o7l09jqsl6d4)" height="52.5938" style="stroke: #A80036; stroke-width: 1.5;" width="134" x="183" y="191.5"/><rect fill="#FEFECE" height="5" style="stroke: #A80036; stroke-width: 1.5;" width="10" x="178" y="196.5"/><rect fill="#FEFECE" height="5" style="stroke: #A80036; stroke-width: 1.5;" width="10" x="178" y="234.0938"/><text fill="#000000" font-family="sans-serif" font-size="14" font-style="italic" lengthAdjust="spacingAndGlyphs" textLength="99" x="200.5" y="214.4951">«kbnlstorage»</text><text fill="#000000" font-family="sans-serif" font-size="14" lengthAdjust="spacingAndGlyphs" textLength="114" x="193" y="230.792">Storage account</text><!--entity AF--><rect fill="#FEFECE" filter="url(#f1o7l09jqsl6d4)" height="52.5938" style="stroke: #A80036; stroke-width: 1.5;" width="250" x="352" y="191.5"/><rect fill="#FEFECE" height="5" style="stroke: #A80036; stroke-width: 1.5;" width="10" x="347" y="196.5"/><rect fill="#FEFECE" height="5" style="stroke: #A80036; stroke-width: 1.5;" width="10" x="347" y="234.0938"/><text fill="#000000" font-family="sans-serif" font-size="14" font-style="italic" lengthAdjust="spacingAndGlyphs" textLength="230" x="362" y="214.4951">«kbnl-interactieve-shv-functions»</text><text fill="#000000" font-family="sans-serif" font-size="14" lengthAdjust="spacingAndGlyphs" textLength="108" x="423" y="230.792">Azure functions</text><!--entity CDN--><rect fill="#FEFECE" filter="url(#f1o7l09jqsl6d4)" height="52.5938" style="stroke: #A80036; stroke-width: 1.5;" width="93" x="436.5" y="75"/><rect fill="#FEFECE" height="5" style="stroke: #A80036; stroke-width: 1.5;" width="10" x="431.5" y="80"/><rect fill="#FEFECE" height="5" style="stroke: #A80036; stroke-width: 1.5;" width="10" x="431.5" y="117.5938"/><text fill="#000000" font-family="sans-serif" font-size="14" font-style="italic" lengthAdjust="spacingAndGlyphs" textLength="73" x="446.5" y="97.9951">«kbnlcdn»</text><text fill="#000000" font-family="sans-serif" font-size="14" lengthAdjust="spacingAndGlyphs" textLength="31" x="467.5" y="114.292">CDN</text><!--entity EP--><ellipse cx="716" cy="218" fill="#FEFECE" filter="url(#f1o7l09jqsl6d4)" rx="8" ry="8" style="stroke: #A80036; stroke-width: 2.0;"/><text fill="#000000" font-family="sans-serif" font-size="14" lengthAdjust="spacingAndGlyphs" textLength="66" x="683" y="247.9951">end point</text><text fill="#000000" font-family="sans-serif" font-size="14" font-style="italic" lengthAdjust="spacingAndGlyphs" textLength="143" x="644.5" y="197.6982">«bestanden-kbnl-nl»</text><!--entity Azure_Http--><ellipse cx="597" cy="337" fill="#FEFECE" filter="url(#f1o7l09jqsl6d4)" rx="8" ry="8" style="stroke: #A80036; stroke-width: 2.0;"/><text fill="#000000" font-family="sans-serif" font-size="14" lengthAdjust="spacingAndGlyphs" textLength="36" x="579" y="366.9951">https</text><!--entity Afmelden--><ellipse cx="597" cy="570" fill="#FEFECE" filter="url(#f1o7l09jqsl6d4)" rx="8" ry="8" style="stroke: #A80036; stroke-width: 2.0;"/><text fill="#000000" font-family="sans-serif" font-size="14" lengthAdjust="spacingAndGlyphs" textLength="97" x="548.5" y="599.9951">Afmeld pagina</text><!--entity Workflow--><rect fill="#FEFECE" filter="url(#f1o7l09jqsl6d4)" height="36.2969" style="stroke: #A80036; stroke-width: 1.5;" width="82" x="724" y="552"/><rect fill="#FEFECE" height="5" style="stroke: #A80036; stroke-width: 1.5;" width="10" x="719" y="557"/><rect fill="#FEFECE" height="5" style="stroke: #A80036; stroke-width: 1.5;" width="10" x="719" y="578.2969"/><text fill="#000000" font-family="sans-serif" font-size="14" lengthAdjust="spacingAndGlyphs" textLength="62" x="734" y="574.9951">Workflow</text><!--entity CR--><path d="M709,694.5 C709,684.5 780,684.5 780,684.5 C780,684.5 851,684.5 851,694.5 L851,719.7969 C851,729.7969 780,729.7969 780,729.7969 C780,729.7969 709,729.7969 709,719.7969 L709,694.5 " fill="#FEFECE" filter="url(#f1o7l09jqsl6d4)" style="stroke: #000000; stroke-width: 1.5;"/><path d="M709,694.5 C709,704.5 780,704.5 780,704.5 C780,704.5 851,704.5 851,694.5 " fill="none" style="stroke: #000000; stroke-width: 1.5;"/><text fill="#000000" font-family="sans-serif" font-size="14" lengthAdjust="spacingAndGlyphs" textLength="122" x="719" y="721.4951">Container registry</text><!--entity Internet--><path d="M526.3988,810.3259 C528.9638,804.2893 532.934,803.7086 537.7765,807.7565 C541.2724,802.9522 546.434,801.8207 549.4051,808.2975 C551.2201,802.9323 555.7807,802.707 559.2423,806.5356 C562.801,802.5078 568.5415,802.1781 570.4392,808.3576 C573.8776,803.5845 578.2059,802.4358 581.7597,808.234 C586.2738,802.7606 589.7886,803.3011 593.0842,809.4238 C602.1733,812.0517 605.5441,816.3833 600.4225,825.4985 C606.1203,832.4383 601.8494,839.7118 593.9515,840.9623 C591.8116,846.4021 587.8219,847.9209 583.1207,843.8921 C579.9415,849.5008 575.5858,850.234 571.0572,845.4599 C569.5309,851.5836 565.476,854.2844 559.7206,850.1199 C554.5438,854.1585 550.8058,851.9273 549.6306,846.0486 C544.2901,850.4801 539.7708,850.0968 536.9358,843.2326 C532.8968,846.8147 528.7822,845.5293 527.1123,840.5228 C518.5685,836.8959 517.8125,830.0713 523.9753,823.7018 C517.7885,817.9275 518.2846,813.5092 526.3988,810.3259 " fill="#FEFECE" style="stroke: #000000; stroke-width: 1.5;"/><text fill="#000000" font-family="sans-serif" font-size="14" lengthAdjust="spacingAndGlyphs" textLength="54" x="532" y="828.4951">Internet</text><!--link SA to AF--><path d="M322.53,218 C332.35,218 342.17,218 351.99,218 " fill="none" id="SA-AF" style="stroke: #A80036; stroke-width: 1.0;"/><polygon fill="#A80036" points="317.39,218,326.39,222,322.39,218,326.39,214,317.39,218" style="stroke: #A80036; stroke-width: 1.0;"/><!--link Workflow to CR--><path d="M766.9,588.1 C769.44,610.98 773.98,651.81 776.99,678.91 " fill="none" id="Workflow-CR" style="stroke: #A80036; stroke-width: 1.0;"/><polygon fill="#A80036" points="777.57,684.13,780.5428,674.7405,777.0131,679.1611,772.5925,675.6315,777.57,684.13" style="stroke: #A80036; stroke-width: 1.0;"/><text fill="#000000" font-family="sans-serif" font-size="13" lengthAdjust="spacingAndGlyphs" textLength="62" x="774" y="644.0669">Container</text><!--link CDN to SA--><path d="M436.41,125.4 C399.15,143.71 346.74,169.46 306.98,189 " fill="none" id="CDN-SA" style="stroke: #A80036; stroke-width: 1.0;"/><polygon fill="#A80036" points="302.19,191.35,312.0323,190.9906,306.6819,189.1539,308.5186,183.8036,302.19,191.35" style="stroke: #A80036; stroke-width: 1.0;"/><!--link CDN to EP--><path d="M534.31,127.71 C591.12,155.63 678.44,198.54 706.78,212.47 " fill="none" id="CDN-EP" style="stroke: #A80036; stroke-width: 1.0;"/><polygon fill="#A80036" points="529.59,125.4,535.9091,132.9544,534.0792,127.6017,539.4318,125.7717,529.59,125.4" style="stroke: #A80036; stroke-width: 1.0;"/><!--link SMTP to Internet--><path d="M437.21,823.5 C461.94,823.5 486.66,823.5 511.38,823.5 " fill="none" id="SMTP-Internet" style="stroke: #A80036; stroke-width: 1.0;"/><polygon fill="#A80036" points="516.66,823.5,507.66,819.5,511.66,823.5,507.66,827.5,516.66,823.5" style="stroke: #A80036; stroke-width: 1.0;"/><!--link SA to Azure_Http--><path d="M322.24,243.36 C409.99,272.95 550.93,320.47 587.89,332.93 " fill="none" id="SA-Azure_Http" style="stroke: #A80036; stroke-width: 1.0;"/><polygon fill="#A80036" points="317.32,241.7,324.5812,248.3539,322.0605,243.2897,327.1248,240.7691,317.32,241.7" style="stroke: #A80036; stroke-width: 1.0;"/><!--link AI to Azure_Http--><path d="M834.29,246.44 C756.51,275.8 639.81,319.84 606.3,332.49 " fill="none" id="AI-Azure_Http" style="stroke: #A80036; stroke-width: 1.0;"/><polygon fill="#A80036" points="839.35,244.53,829.518,243.9547,834.6701,246.2903,832.3345,251.4425,839.35,244.53" style="stroke: #A80036; stroke-width: 1.0;"/><!--link EP to Azure_Http--><path d="M704.23,230.57 C680.18,254.22 625.93,307.55 605.24,327.9 " fill="none" id="EP-Azure_Http" style="stroke: #A80036; stroke-width: 1.0;"/><polygon fill="#A80036" points="707.82,227.04,698.5924,230.4825,704.2489,230.5396,704.1918,236.1962,707.82,227.04" style="stroke: #A80036; stroke-width: 1.0;"/><!--link AF to Azure_Http--><path d="M507.24,248.49 C534.29,274.86 572.14,311.77 588.7,327.91 " fill="none" id="AF-Azure_Http" style="stroke: #A80036; stroke-width: 1.0;"/><polygon fill="#A80036" points="503.33,244.68,506.9765,253.829,506.908,248.1725,512.5645,248.1041,503.33,244.68" style="stroke: #A80036; stroke-width: 1.0;"/><!--link ISHV to CR--><path d="M469.1099,579.2863 C469.1727,579.3481 469.2359,579.4103 469.2993,579.4726 C469.4261,579.5974 469.5542,579.7232 469.6836,579.85 C469.9423,580.1037 470.206,580.3615 470.4746,580.6233 C471.549,581.6704 472.7015,582.7809 473.9252,583.9435 C476.3725,586.2685 479.1044,588.8016 482.065,591.4513 C493.9075,602.05 509.41,614.515 525,623 C583.47,654.83 656.19,677 708.99,690.37 " fill="none" id="ISHV-CR" style="stroke: #A80036; stroke-width: 1.0;"/><polygon fill="#A80036" points="469.1099,579.2863,472.7157,588.4514,472.6724,582.7947,478.3291,582.7514,469.1099,579.2863" style="stroke: #A80036; stroke-width: 1.0;"/><!--link Azure_Http to Workflow--><path d="M611.03,344.85 C629.57,354.49 662.31,373.65 683,398 C724.15,446.42 749.86,519.02 760.02,551.83 " fill="none" id="Azure_Http-Workflow" style="stroke: #A80036; stroke-width: 1.0; stroke-dasharray: 7.0,7.0;"/><polygon fill="#A80036" points="606.19,342.38,612.3926,350.0304,610.6449,344.6503,616.025,342.9026,606.19,342.38" style="stroke: #A80036; stroke-width: 1.0;"/><text fill="#000000" font-family="sans-serif" font-size="13" lengthAdjust="spacingAndGlyphs" textLength="116" x="696" y="411.0669">Mailing bestanden</text><!--link Azure_Http to KBNL_Http--><path d="M582.79,339.15 C544.16,343.09 436.57,359.52 383,423 C347.74,464.78 349.54,536.87 351.27,560.93 " fill="none" id="Azure_Http-KBNL_Http" style="stroke: #A80036; stroke-width: 1.0; stroke-dasharray: 7.0,7.0;"/><polygon fill="#A80036" points="587.97,338.66,578.6334,335.525,582.9922,339.1307,579.3865,343.4895,587.97,338.66" style="stroke: #A80036; stroke-width: 1.0;"/><!--link Azure_Http to Afmelden--><path d="M597,351.42 C597,394.11 597,526.06 597,560.64 " fill="none" id="Azure_Http-Afmelden" style="stroke: #A80036; stroke-width: 1.0; stroke-dasharray: 7.0,7.0;"/><polygon fill="#A80036" points="597,346.22,593,355.22,597,351.22,601,355.22,597,346.22" style="stroke: #A80036; stroke-width: 1.0;"/><text fill="#000000" font-family="sans-serif" font-size="13" lengthAdjust="spacingAndGlyphs" textLength="76" x="598" y="411.0669">Afmeldcode</text><!--link KBNL_Http to AIC--><path d="M338.3,580.39 C305.46,602.89 221.89,660.16 179.89,688.94 " fill="none" id="KBNL_Http-AIC" style="stroke: #A80036; stroke-width: 1.0; stroke-dasharray: 7.0,7.0;"/><polygon fill="#A80036" points="342.76,577.33,333.0746,579.1169,338.6352,580.156,337.5962,585.7166,342.76,577.33" style="stroke: #A80036; stroke-width: 1.0;"/><!--link KBNL_Http to ASQ--><path d="M352,584.06 C352,611.65 352,675.22 352,697.83 " fill="none" id="KBNL_Http-ASQ" style="stroke: #A80036; stroke-width: 1.0; stroke-dasharray: 7.0,7.0;"/><polygon fill="#A80036" points="352,579.04,348,588.04,352,584.04,356,588.04,352,579.04" style="stroke: #A80036; stroke-width: 1.0;"/><!--link AIC to ILogger--><path d="M157.28,725.39 C159.68,743.76 163.52,773 166.35,794.6 " fill="none" id="AIC-ILogger" style="stroke: #A80036; stroke-width: 1.0; stroke-dasharray: 7.0,7.0;"/><polygon fill="none" points="173.29,793.72,168.95,814.46,159.41,795.54,173.29,793.72" style="stroke: #A80036; stroke-width: 1.0;"/><!--link APP to SMTP--><path d="M383.68,823.5 C393.7,823.5 403.73,823.5 413.75,823.5 " fill="none" id="APP-SMTP" style="stroke: #A80036; stroke-width: 1.0;"/><polygon fill="#A80036" points="419,823.5,410,819.5,414,823.5,410,827.5,419,823.5" style="stroke: #A80036; stroke-width: 1.0;"/><!--link ASQ to APP--><path d="M346.79,720.97 C339.42,739.31 325.8,773.2 316.34,796.76 " fill="none" id="ASQ-APP" style="stroke: #A80036; stroke-width: 1.0;"/><polygon fill="#A80036" points="348.69,716.23,341.6154,723.082,346.8208,720.8674,349.0353,726.0728,348.69,716.23" style="stroke: #A80036; stroke-width: 1.0;"/><!--link ILogger to APP--><path d="M184.4,823.5 C198.98,823.5 213.56,823.5 228.13,823.5 " fill="none" id="ILogger-APP" style="stroke: #A80036; stroke-width: 1.0;"/><polygon fill="#A80036" points="179.03,823.5,188.03,827.5,184.03,823.5,188.03,819.5,179.03,823.5" style="stroke: #A80036; stroke-width: 1.0;"/><!--link APP to DA--><path d="M306,850.2 C306,873.62 306,907.29 306,925.71 " fill="none" id="APP-DA" style="stroke: #A80036; stroke-width: 1.0;"/><polygon fill="#A80036" points="306,930.91,310,921.91,306,925.91,302,921.91,306,930.91" style="stroke: #A80036; stroke-width: 1.0;"/><!--link DA to Sophion--><path d="M296.93,946.1 C279.03,956.7 239.27,983 221,1017 C214.17,1029.71 211.55,1045.57 210.69,1058.82 " fill="none" id="DA-Sophion" style="stroke: #A80036; stroke-width: 1.0;"/><polygon fill="#A80036" points="210.43,1063.95,214.8619,1055.1547,210.6726,1058.9559,206.8713,1054.7665,210.43,1063.95" style="stroke: #A80036; stroke-width: 1.0;"/><text fill="#000000" font-family="sans-serif" font-size="13" lengthAdjust="spacingAndGlyphs" textLength="98" x="222" y="1030.0669">TCP/IP:1433 RW</text><!--link DA to Allegro--><path d="M308.55,949.18 C315.01,969.92 332.25,1025.28 342.66,1058.73 " fill="none" id="DA-Allegro" style="stroke: #A80036; stroke-width: 1.0;"/><polygon fill="#A80036" points="344.27,1063.9,345.3868,1054.1147,342.7705,1059.1301,337.755,1056.5139,344.27,1063.9" style="stroke: #A80036; stroke-width: 1.0;"/><text fill="#000000" font-family="sans-serif" font-size="13" lengthAdjust="spacingAndGlyphs" textLength="87" x="334" y="1030.0669">TCP/IP:1433 R</text><!--
@startuml

cloud KBNL {
    package "Interactieve SHV" <<container>> AS ISHV {
        [Console application] <<.net core 6>> as APP
        () SMTP
        () ILogger
        () "Entity framework" as DA
        () "Azure storage queues" AS ASQ
        [Application insights] as AIC
        () https as KBNL_Http
    }


    database Sophion
    database Allegro
}

cloud "Azure" <<kbnl>> {
    [Application insights] <<kbnl-insights>> AS AI
    [Storage account] <<kbnlstorage>> AS SA
    [Azure functions] <<kbnl-interactieve-shv-functions>> AS AF
    [CDN] <<kbnlcdn>> AS CDN
    () "end point" <<bestanden-kbnl-nl>> AS EP
    () https as Azure_Http

    SA <- AF
}

cloud "Website" <<kbnkl.nl>> {
    () "Afmeld pagina" as Afmelden
}

cloud "Internet"

cloud Github <<kredietbank-nederland>> {
    [Workflow]
    database "Container registry" AS CR

    Workflow - -> CR : Container
}

CDN - -> SA
CDN <- - EP

SMTP -> Internet

SA <- - Azure_Http
AI <- - Azure_Http
EP <- - Azure_Http
AF <- - Azure_Http

ISHV <- CR

Azure_Http <.. Workflow : "Mailing bestanden"
Azure_Http <.. KBNL_Http
Azure_Http <.. Afmelden : "Afmeldcode"

KBNL_Http <.. AIC
KBNL_Http <.. ASQ

AIC ..|> ILogger

APP -> SMTP

ASQ <- - APP
ILogger <- APP

APP - -> DA

DA - -> Sophion : "TCP/IP:1433 RW"
DA - -> Allegro : "TCP/IP:1433 R"


@enduml

PlantUML version 1.2019.06(Fri May 24 17:10:25 UTC 2019)
(GPL source distribution)
Java Runtime: OpenJDK Runtime Environment
JVM: OpenJDK 64-Bit Server VM
Java Version: 11.0.13+8
Operating System: Linux
OS Version: 5.11.0-1027-azure
Default Encoding: UTF-8
Language: en
Country: null
--></g></svg>