<?xml version="1.0" encoding="UTF-8" standalone="no"?><svg xmlns="http://www.w3.org/2000/svg" xmlns:xlink="http://www.w3.org/1999/xlink" contentStyleType="text/css" height="1193px" preserveAspectRatio="none" style="width:1095px;height:1193px;background:#FFFFFF;" version="1.1" viewBox="0 0 1095 1193" width="1095px" zoomAndPan="magnify"><defs/><g><g id="cluster_KBNL"><path d="M41.1444,474.0719 C55.8532,448.8101 71.3856,452.0355 87.9707,472.1349 C100.2833,448.9844 117.8024,442.2165 137.23,464.4046 C148.7883,439.7377 172.097,436 186.7895,461.2957 C200.5362,440.4599 217.2508,440.4952 230.2287,462.0828 C246.5791,438.4988 262.4298,438.8166 278.3097,462.5608 C291.9238,442.6051 311.2995,442.9409 325.5852,461.7418 C341.2312,438.5971 364.9967,442.7123 373.3067,468.846 C388.0796,441.8751 405.6533,440.4938 422.6352,466.8007 C440.3109,441.9751 456.3277,442.5035 470.7627,469.7933 C485.3831,451.2743 505.0941,453.1854 516.506,473.5663 C517.0876,472.5367 518.0341,472.5889 518.5297,473.6496 C543.0199,486.7714 549.827,507.7157 524.635,526.5694 C545.3281,537.7624 548.4033,560.7018 525.4479,572.6646 C549.5154,589.6094 543.8561,613.1938 517.8575,622.5154 C541.4348,633.386 542.5064,651.6623 524.1404,668.2899 C544.6408,681.4831 544.4114,702.1361 525.2169,716.2207 C549.5542,732.3334 549.1042,750.2471 524.5376,765.6882 C553.6726,783.9702 546.7089,799.9899 524.8122,818.537 C546.3362,835.5503 542.4079,849.8186 522.4861,864.7455 C549.6756,879.5112 545.3824,901.7902 520.9795,915.0095 C544.478,932.3527 543.3422,946.5631 517.5985,960.2241 C540.0929,973.0265 540.4755,989.0895 523.0938,1006.6155 C545.6242,1022.8402 550.8488,1038.2959 524.9153,1056.2975 C546.3402,1070.92 545.8016,1092.475 520.8095,1103.0183 C543.8967,1123.8108 535.7554,1144.9885 509.506,1155.0663 C513.9749,1156.5028 514.4301,1159.8505 511.7374,1163.2417 C496.2429,1185.7501 479.9499,1186.1069 466.7438,1161.0759 C451.4678,1178.9356 430.1019,1178.1499 419.2261,1155.8673 C406.9731,1179.1951 385.8694,1181.7027 370.9609,1158.6295 C361.7997,1181.1687 338.9888,1182.3917 324.4895,1164.8129 C307.8836,1181.2293 287.841,1182.5942 278.3387,1157.0078 C263.3665,1177.2548 248.5823,1177.2833 233.6137,1157.0037 C221.2169,1185.1836 206.2555,1184.0491 186.3593,1164.4154 C166.3305,1185.2574 152.1467,1178.8687 140.2068,1155.8951 C123.8927,1178.0246 107.52,1182.046 90.5844,1156.5425 C66.4838,1183.7426 49.1535,1177.789 33.506,1148.0663 C38.688,1146.28 40.9166,1148.01 40.3198,1153.4873 C20.3219,1139.5534 15.2253,1118.5916 40.64,1104.9572 C13.9827,1096.8044 14.6885,1072.76 32.0423,1056.7568 C7.1333,1040.8759 13.7036,1016.7621 37.9534,1006.6846 C14.4744,995.409 10.6154,977.7143 29.8713,959.1697 C7.1624,939.6748 11.9382,925.0426 36.8787,912.739 C7.9172,899.2851 9.1914,879.3787 29.7407,859.3102 C7.8998,846.8079 9.4129,833.029 28.8421,819.593 C6,799.0075 8.3604,779.548 34.6599,764.1158 C13.5138,749.0147 12.3584,731.727 35.4742,717.3973 C12.7683,702.636 10.9728,681.3844 37.1158,668.2548 C15.2677,659.2958 14.8709,639.1598 33.2226,626.4565 C11.7154,608.8684 14.6101,587.0337 39.8176,575.4906 C17.597,560.6299 15.0764,545.0451 39.9105,530.2812 C10.0595,509.11 11.5337,487.1877 40.506,466.5663 C44.1722,468.4542 44.2612,471.6071 41.1444,474.0719 " fill="none" style="stroke:#181818;stroke-width:1.0;"/><text fill="#000000" font-family="sans-serif" font-size="14" font-weight="bold" lengthAdjust="spacing" textLength="41" x="254.506" y="484.5614">KBNL</text></g><g id="cluster_ISHV"><path d="M60.006,509.5663 L192.006,509.5663 A3.75,3.75 0 0 1 194.506,512.0663 L201.506,531.8632 L490.006,531.8632 A2.5,2.5 0 0 1 492.506,534.3632 L492.506,1028.5663 A2.5,2.5 0 0 1 490.006,1031.0663 L60.006,1031.0663 A2.5,2.5 0 0 1 57.506,1028.5663 L57.506,512.0663 A2.5,2.5 0 0 1 60.006,509.5663 " fill="none" style="stroke:#000000;stroke-width:1.5;"/><line style="stroke:#000000;stroke-width:1.5;" x1="57.506" x2="201.506" y1="531.8632" y2="531.8632"/><text fill="#000000" font-family="sans-serif" font-size="14" font-weight="bold" lengthAdjust="spacing" textLength="131" x="61.506" y="524.5614">Interactieve SHV</text><text fill="#000000" font-family="sans-serif" font-size="14" font-style="italic" lengthAdjust="spacing" textLength="83" x="237.506" y="546.8583">«container»</text></g><g id="cluster_Azure"><path d="M178.3264,54.4415 C190.2894,21.6206 219.2949,21.4073 238.3209,47.2138 C256.4097,20.6168 279.9553,20.9858 295.0436,50.2599 C313.9312,17.9862 340.3155,15.5112 361.0211,48.4197 C380.7644,22.1848 401.0439,16.8688 421.7734,47.3635 C438.7432,12.0229 470.0894,13.8463 490.7037,43.4981 C512.0449,16.811 530.2952,15.382 547.1694,47.7679 C562.5998,16.9924 587.2112,12.2701 608.0911,42.3088 C630.4425,10.3624 651.9726,6 675.0955,41.5428 C691.3753,14.9418 713.6944,20.8345 727.1875,44.4346 C748.386,20.4556 770.8666,19.4764 789.2527,47.7735 C810.676,19.7789 841.477,13.7466 858.6432,52.2179 C869.4659,21.7853 891.7189,20.7179 911.4611,43.3379 C937.4085,12.8392 962.8234,8.334 982.7111,49.3732 C1001.3701,25.7745 1024.6944,25.6381 1041.506,51.5663 C1046.2975,48.1427 1049.8044,50.1489 1049.9948,55.8478 C1080.9946,74.2603 1077.5599,101.2294 1048.5712,118.2738 C1075.5887,128.1073 1073.6552,149.6671 1055.3821,165.9683 C1082.4972,187.7904 1088.1393,212.4551 1052.3284,231.3377 C1081.1787,250.6499 1081.3007,267.5563 1052.2527,286.7895 C1082.4251,305.7923 1077.478,327.0682 1051.088,344.9381 C1073.7548,369.5957 1066.5722,392.9358 1034.506,401.5663 C1035.9589,401.2497 1036.8941,402.0669 1036.7343,403.5562 C1023.4126,435.4265 1001.5067,436.9868 980.9729,410.4405 C958.2361,443.5964 935.2753,448.0381 912.1578,410.8127 C896.582,431.6918 872.2164,431.2343 860.587,406.3641 C841.6272,434.8503 820.6523,435.9805 797.4958,411.3488 C780.4912,445.6933 747.1065,445.5947 726.6457,415.1269 C710.4015,448.683 682.0397,440.741 665.3596,415.5818 C651.8688,441.2914 625.4549,438.9287 610.9018,416.7909 C585.1474,440.8554 564.4573,440.3277 545.1922,409.0814 C529.1435,440.5925 509.6896,445.9108 486.2675,416.1753 C466.0227,440.5185 431.9627,442.7517 419.8547,407.1592 C403.4165,434.9839 379.1232,433.3528 360.0392,410.2679 C337.2349,439.1549 316.9141,438.1638 298.429,405.9152 C284.5162,433.9672 260.8239,431.9787 244.1736,408.8152 C211.2146,438.2583 184.7405,436.2677 164.506,394.5663 C167.4138,394.3794 168.9132,396.424 167.3285,399.0593 C144.2813,385.8217 142.9503,358.2989 165.3985,343.4814 C141.3422,321.4319 139.8701,302.1847 170.5756,284.9816 C139.5681,272.8598 133.4506,243.4828 163.1011,223.9342 C142.5965,205.1227 140.8579,178.1715 171.8099,167.2683 C145.2827,157.3526 139.0849,133.9484 164.7959,116.7761 C136.9133,89.3135 138.8605,66.4043 171.506,44.5663 C177.6783,44.9738 180.7818,48.0753 178.3264,54.4415 " fill="none" style="stroke:#181818;stroke-width:1.0;"/><text fill="#000000" font-family="sans-serif" font-size="14" font-style="italic" lengthAdjust="spacing" textLength="47" x="579.506" y="62.5614">«kbnl»</text><text fill="#000000" font-family="sans-serif" font-size="14" font-weight="bold" lengthAdjust="spacing" textLength="47" x="579.506" y="78.8583">Azure</text></g><g id="cluster_Website"><path d="M565.7025,527.2411 C567.2185,522.0899 572.177,521.3546 575.5894,525.1439 C579.5448,520.0056 584.092,520.5339 587.5189,525.7526 C590.1079,519.3166 594.4964,517.5851 599.8221,522.8832 C603.3036,518.8636 607.2098,518.8341 609.9763,523.7003 C613.2947,517.7385 617.632,517.9432 621.6281,522.9825 C625.8906,517.1077 630.1168,517.3947 633.9036,523.4711 C637.3478,518.7772 641.6286,517.695 645.0458,523.4998 C648.9537,518.5942 653.6961,518.6136 656.4515,524.6962 C660.6641,519.9344 664.6546,520.0625 667.085,526.4031 C675.048,521.2545 681.9207,522.5142 684.506,532.5663 C684.7337,532.3958 684.9099,532.4368 684.9741,532.7309 C692.4932,535.6627 691.3989,542.4063 685.9499,546.2725 C691.2168,549.7968 691.1611,553.3615 686.8997,557.6791 C691.9854,560.2448 692.9928,565.1292 687.4726,568.2687 C693.851,571.3607 694.8259,577.6724 688.2191,581.4972 C692.8568,586.3452 692.8562,590.081 686.657,593.5211 C692.9472,596.9066 692.325,601.9497 686.8303,605.5055 C690.7942,609.0569 691.6351,613.5415 685.6986,616.0282 C691.5059,625.9778 687.9981,631.8199 677.506,634.5663 C678.1134,633.6222 679.0934,633.721 679.5235,634.7478 C676.3473,640.9437 672.7666,641.5752 668.054,636.2816 C664.0924,642.7048 658.4262,641.0024 655.2295,635.4618 C653.161,640.8324 648.4001,640.2971 645.3657,636.5014 C640.955,642.5275 635.9907,642.3476 631.9284,636.1194 C629.0384,640.8975 625.6842,641.5006 621.536,637.6315 C617.6934,642.7416 612.4077,641.5511 609.908,636.1464 C606.3491,642.0151 603.0361,641.7959 599.0973,636.5148 C595.4916,641.7563 591.2441,642.3283 587.8284,636.3244 C584.1609,641.5605 579.695,641.601 576.0746,636.2719 C567.3853,642.393 557.6873,638.322 556.506,627.5663 C556.7342,627.4339 556.9297,627.5353 556.9595,627.7955 C552.1067,625.3717 551.0916,620.7195 556.2218,617.5752 C549.7131,613.9762 550.6724,608.2272 555.9843,604.4148 C550.4542,601.3556 549.678,596.4529 555.4844,592.9015 C549.8719,589.7794 549.966,585.632 554.9085,581.9547 C549.3183,576.6018 550.1216,572.9642 557.1225,569.9295 C551.8654,566.0088 550.607,561.468 557.3238,557.7449 C551.4896,554.7723 550.9588,548.5209 556.9576,545.2028 C549.4591,535.674 551.3588,528.5437 563.506,525.5663 C565.1659,524.9615 565.8344,525.4959 565.7025,527.2411 " fill="none" style="stroke:#181818;stroke-width:1.0;"/><text fill="#000000" font-family="sans-serif" font-size="14" font-style="italic" lengthAdjust="spacing" textLength="71" x="585.006" y="543.5614">«kbnkl.nl»</text><text fill="#000000" font-family="sans-serif" font-size="14" font-weight="bold" lengthAdjust="spacing" textLength="64" x="588.506" y="559.8583">Website</text></g><g id="cluster_Github"><path d="M732.6801,525.7888 C737.3049,516.8874 745.0671,516.0408 750.4561,525.0294 C754.615,516.7021 761.2326,515.5009 767.0999,523.262 C771.3532,515.4202 779.1329,514.5794 783.2602,523.3843 C788.6447,513.9947 793.862,515.3629 800.046,522.576 C804.1954,511.7819 812.4056,511.2737 819.4645,519.625 C825.003,511.7688 832.7321,512.6209 836.5904,521.3591 C840.1801,515.0181 846.6299,513.485 850.5159,521.0626 C857.1526,514.7137 864.859,513.4932 868.4066,524.2866 C873.1492,515.1836 880.6152,516.8993 885.1018,524.5419 C894.2207,513.882 904.7387,518.0541 908.506,530.0663 C909.8199,529.7366 910.4459,530.4566 910.3127,531.7138 C916.9876,535.9457 917.7371,541.7304 910.8458,546.4529 C920.4529,549.6268 920.6317,557.7007 913.0413,563.1376 C922.953,567.3071 923.9891,573.3605 915.6901,580.3348 C922.7887,584.4325 922.714,590.6467 916.5508,595.4971 C924.9861,599.0319 927.4864,607.1836 918.6562,612.8172 C926.595,617.0498 927.1734,623.9277 919.8326,629.2539 C928.4415,634.1844 929.0801,639.9941 921.5543,646.5324 C928.6966,653.1445 927.928,658.6309 918.6933,662.2649 C927.078,667.9776 926.37,675.2671 917.3722,679.6597 C925.9733,685.2342 925.52,690.4365 916.9733,695.5814 C923.8716,701.4621 922.6031,708.0652 914.0256,710.9843 C920.5091,715.7296 921.0189,722.401 912.8805,726.0338 C920.7028,732.222 920.8859,739.8595 911.1978,744.4475 C917.4315,754.4524 914.0528,764.1801 901.506,765.5663 C902.5471,765.3364 902.9085,765.7743 902.7392,766.7772 C897.8349,775.5689 891.7525,776.0735 884.9125,768.9445 C880.9546,776.3965 875.9597,778.1942 869.2451,772.1432 C863.6456,780.2837 858.6359,779.9466 853.0826,772.0965 C850.0464,782.4496 840.7206,783.9684 834.1253,775.7245 C830.9609,783.0993 824.0711,784.6055 818.483,778.5465 C812.0665,786.1672 804.6101,783.8148 801.3074,775.2435 C795.5595,781.3123 788.8906,781.9461 785.3081,772.9446 C780.28,782.3036 772.2028,782.2189 767.7062,772.4554 C761.538,778.5062 753.8789,776.2824 751.4529,768.1632 C739.2924,778.9065 727.1357,774.5842 724.506,758.5663 C726.9737,757.9537 727.9863,758.7177 727.6762,761.3121 C718.2192,757.8946 716.4764,750.5483 724.5142,743.9454 C717.8866,739.5718 716.1947,733.8399 723.364,728.4427 C714.0542,721.6667 717.313,714.5524 725.5428,709.8295 C717.5985,706.4236 716.9829,700.9344 722.5458,694.8298 C714.769,689.8079 715.5318,682.749 722.605,677.7787 C714.3603,673.7116 714.62,668.3454 720.9253,662.6616 C713.0165,658.0457 712.4015,651.4568 720.6629,646.5772 C712.6297,640.6227 712.7514,634.6753 721.8953,629.9975 C713.5576,625.2159 713.707,618.5397 721.9962,613.862 C714.2447,608.0582 714.6652,602.9102 722.8925,598.0099 C716.0646,592.3555 715.2325,586.3649 723.3997,581.1619 C715.5636,575.6154 716.9188,568.4812 725.0712,564.5428 C717.308,559.2746 716.4568,554.5068 724.5763,548.7412 C713.6209,537.0133 716.2639,527.7235 731.506,523.0663 C733.0614,523.4954 733.4561,524.3542 732.6801,525.7888 " fill="none" style="stroke:#181818;stroke-width:1.0;"/><text fill="#000000" font-family="sans-serif" font-size="14" font-style="italic" lengthAdjust="spacing" textLength="175" x="729.006" y="541.0614">«kredietbank-nederland»</text><text fill="#000000" font-family="sans-serif" font-size="14" font-weight="bold" lengthAdjust="spacing" textLength="52" x="790.506" y="557.3583">Github</text></g><g id="elem_Sophion"><path d="M191.006,1112.0663 C191.006,1102.0663 229.506,1102.0663 229.506,1102.0663 C229.506,1102.0663 268.006,1102.0663 268.006,1112.0663 L268.006,1137.3632 C268.006,1147.3632 229.506,1147.3632 229.506,1147.3632 C229.506,1147.3632 191.006,1147.3632 191.006,1137.3632 L191.006,1112.0663 " fill="#F1F1F1" style="stroke:#181818;stroke-width:0.5;"/><path d="M191.006,1112.0663 C191.006,1122.0663 229.506,1122.0663 229.506,1122.0663 C229.506,1122.0663 268.006,1122.0663 268.006,1112.0663 " fill="none" style="stroke:#181818;stroke-width:0.5;"/><text fill="#000000" font-family="sans-serif" font-size="14" lengthAdjust="spacing" textLength="57" x="201.006" y="1139.0614">Sophion</text></g><g id="elem_Allegro"><path d="M336.006,1112.0663 C336.006,1102.0663 369.506,1102.0663 369.506,1102.0663 C369.506,1102.0663 403.006,1102.0663 403.006,1112.0663 L403.006,1137.3632 C403.006,1147.3632 369.506,1147.3632 369.506,1147.3632 C369.506,1147.3632 336.006,1147.3632 336.006,1137.3632 L336.006,1112.0663 " fill="#F1F1F1" style="stroke:#181818;stroke-width:0.5;"/><path d="M336.006,1112.0663 C336.006,1122.0663 369.506,1122.0663 369.506,1122.0663 C369.506,1122.0663 403.006,1122.0663 403.006,1112.0663 " fill="none" style="stroke:#181818;stroke-width:0.5;"/><text fill="#000000" font-family="sans-serif" font-size="14" lengthAdjust="spacing" textLength="47" x="346.006" y="1139.0614">Allegro</text></g><g id="elem_APP"><rect fill="#F1F1F1" height="62.5938" rx="2.5" ry="2.5" style="stroke:#181818;stroke-width:0.5;" width="175" x="232.006" y="825.0663"/><rect fill="#F1F1F1" height="10" style="stroke:#181818;stroke-width:0.5;" width="15" x="387.006" y="830.0663"/><rect fill="#F1F1F1" height="2" style="stroke:#181818;stroke-width:0.5;" width="4" x="385.006" y="832.0663"/><rect fill="#F1F1F1" height="2" style="stroke:#181818;stroke-width:0.5;" width="4" x="385.006" y="836.0663"/><text fill="#000000" font-family="sans-serif" font-size="14" font-style="italic" lengthAdjust="spacing" textLength="93" x="268.006" y="858.0614">«.net core 6»</text><text fill="#000000" font-family="sans-serif" font-size="14" lengthAdjust="spacing" textLength="135" x="247.006" y="874.3583">Console application</text></g><g id="elem_SMTP"><ellipse cx="451.506" cy="856.5663" fill="#F1F1F1" rx="8" ry="8" style="stroke:#181818;stroke-width:0.5;"/><text fill="#000000" font-family="sans-serif" font-size="14" lengthAdjust="spacing" textLength="39" x="432.006" y="886.5614">SMTP</text></g><g id="elem_ILogger"><ellipse cx="178.506" cy="856.5663" fill="#F1F1F1" rx="8" ry="8" style="stroke:#181818;stroke-width:0.5;"/><text fill="#000000" font-family="sans-serif" font-size="14" lengthAdjust="spacing" textLength="51" x="153.006" y="886.5614">ILogger</text></g><g id="elem_DA"><ellipse cx="319.506" cy="978.0663" fill="#F1F1F1" rx="8" ry="8" style="stroke:#181818;stroke-width:0.5;"/><text fill="#000000" font-family="sans-serif" font-size="14" lengthAdjust="spacing" textLength="114" x="262.506" y="1008.0614">Entity framework</text></g><g id="elem_ASQ"><ellipse cx="375.506" cy="735.0663" fill="#F1F1F1" rx="8" ry="8" style="stroke:#181818;stroke-width:0.5;"/><text fill="#000000" font-family="sans-serif" font-size="14" lengthAdjust="spacing" textLength="154" x="298.506" y="765.0614">Azure storage queues</text></g><g id="elem_AIC"><rect fill="#F1F1F1" height="46.2969" rx="2.5" ry="2.5" style="stroke:#181818;stroke-width:0.5;" width="173" x="82.006" y="712.0663"/><rect fill="#F1F1F1" height="10" style="stroke:#181818;stroke-width:0.5;" width="15" x="235.006" y="717.0663"/><rect fill="#F1F1F1" height="2" style="stroke:#181818;stroke-width:0.5;" width="4" x="233.006" y="719.0663"/><rect fill="#F1F1F1" height="2" style="stroke:#181818;stroke-width:0.5;" width="4" x="233.006" y="723.0663"/><text fill="#000000" font-family="sans-serif" font-size="14" lengthAdjust="spacing" textLength="133" x="97.006" y="745.0614">Application insights</text></g><g id="elem_KBNL_Http"><ellipse cx="375.506" cy="597.5663" fill="#F1F1F1" rx="8" ry="8" style="stroke:#181818;stroke-width:0.5;"/><text fill="#000000" font-family="sans-serif" font-size="14" lengthAdjust="spacing" textLength="36" x="357.506" y="627.5614">https</text></g><g id="elem_AI"><rect fill="#F1F1F1" height="62.5938" rx="2.5" ry="2.5" style="stroke:#181818;stroke-width:0.5;" width="173" x="860.006" y="211.5663"/><rect fill="#F1F1F1" height="10" style="stroke:#181818;stroke-width:0.5;" width="15" x="1013.006" y="216.5663"/><rect fill="#F1F1F1" height="2" style="stroke:#181818;stroke-width:0.5;" width="4" x="1011.006" y="218.5663"/><rect fill="#F1F1F1" height="2" style="stroke:#181818;stroke-width:0.5;" width="4" x="1011.006" y="222.5663"/><text fill="#000000" font-family="sans-serif" font-size="14" font-style="italic" lengthAdjust="spacing" textLength="104" x="889.506" y="244.5614">«kbnl-insights»</text><text fill="#000000" font-family="sans-serif" font-size="14" lengthAdjust="spacing" textLength="133" x="875.006" y="260.8583">Application insights</text></g><g id="elem_SA"><rect fill="#F1F1F1" height="62.5938" rx="2.5" ry="2.5" style="stroke:#181818;stroke-width:0.5;" width="154" x="172.506" y="211.5663"/><rect fill="#F1F1F1" height="10" style="stroke:#181818;stroke-width:0.5;" width="15" x="306.506" y="216.5663"/><rect fill="#F1F1F1" height="2" style="stroke:#181818;stroke-width:0.5;" width="4" x="304.506" y="218.5663"/><rect fill="#F1F1F1" height="2" style="stroke:#181818;stroke-width:0.5;" width="4" x="304.506" y="222.5663"/><text fill="#000000" font-family="sans-serif" font-size="14" font-style="italic" lengthAdjust="spacing" textLength="99" x="195.006" y="244.5614">«kbnlstorage»</text><text fill="#000000" font-family="sans-serif" font-size="14" lengthAdjust="spacing" textLength="114" x="187.506" y="260.8583">Storage account</text></g><g id="elem_AF"><rect fill="#F1F1F1" height="62.5938" rx="2.5" ry="2.5" style="stroke:#181818;stroke-width:0.5;" width="270" x="361.506" y="211.5663"/><rect fill="#F1F1F1" height="10" style="stroke:#181818;stroke-width:0.5;" width="15" x="611.506" y="216.5663"/><rect fill="#F1F1F1" height="2" style="stroke:#181818;stroke-width:0.5;" width="4" x="609.506" y="218.5663"/><rect fill="#F1F1F1" height="2" style="stroke:#181818;stroke-width:0.5;" width="4" x="609.506" y="222.5663"/><text fill="#000000" font-family="sans-serif" font-size="14" font-style="italic" lengthAdjust="spacing" textLength="230" x="376.506" y="244.5614">«kbnl-interactieve-shv-functions»</text><text fill="#000000" font-family="sans-serif" font-size="14" lengthAdjust="spacing" textLength="108" x="437.506" y="260.8583">Azure functions</text></g><g id="elem_CDN"><rect fill="#F1F1F1" height="62.5938" rx="2.5" ry="2.5" style="stroke:#181818;stroke-width:0.5;" width="113" x="441.006" y="87.5663"/><rect fill="#F1F1F1" height="10" style="stroke:#181818;stroke-width:0.5;" width="15" x="534.006" y="92.5663"/><rect fill="#F1F1F1" height="2" style="stroke:#181818;stroke-width:0.5;" width="4" x="532.006" y="94.5663"/><rect fill="#F1F1F1" height="2" style="stroke:#181818;stroke-width:0.5;" width="4" x="532.006" y="98.5663"/><text fill="#000000" font-family="sans-serif" font-size="14" font-style="italic" lengthAdjust="spacing" textLength="73" x="456.006" y="120.5614">«kbnlcdn»</text><text fill="#000000" font-family="sans-serif" font-size="14" lengthAdjust="spacing" textLength="31" x="477.006" y="136.8583">CDN</text></g><g id="elem_EP"><ellipse cx="745.506" cy="243.0663" fill="#F1F1F1" rx="8" ry="8" style="stroke:#181818;stroke-width:0.5;"/><text fill="#000000" font-family="sans-serif" font-size="14" lengthAdjust="spacing" textLength="66" x="712.506" y="273.0614">end point</text><text fill="#000000" font-family="sans-serif" font-size="14" font-style="italic" lengthAdjust="spacing" textLength="143" x="674.006" y="222.7646">«bestanden-kbnl-nl»</text></g><g id="elem_Azure_Http"><ellipse cx="620.506" cy="364.5663" fill="#F1F1F1" rx="8" ry="8" style="stroke:#181818;stroke-width:0.5;"/><text fill="#000000" font-family="sans-serif" font-size="14" lengthAdjust="spacing" textLength="36" x="602.506" y="394.5614">https</text></g><g id="elem_Afmelden"><ellipse cx="620.506" cy="597.5663" fill="#F1F1F1" rx="8" ry="8" style="stroke:#181818;stroke-width:0.5;"/><text fill="#000000" font-family="sans-serif" font-size="14" lengthAdjust="spacing" textLength="97" x="572.006" y="627.5614">Afmeld pagina</text></g><g id="elem_Workflow"><rect fill="#F1F1F1" height="62.5938" rx="2.5" ry="2.5" style="stroke:#181818;stroke-width:0.5;" width="168" x="732.506" y="566.0663"/><rect fill="#F1F1F1" height="10" style="stroke:#181818;stroke-width:0.5;" width="15" x="880.506" y="571.0663"/><rect fill="#F1F1F1" height="2" style="stroke:#181818;stroke-width:0.5;" width="4" x="878.506" y="573.0663"/><rect fill="#F1F1F1" height="2" style="stroke:#181818;stroke-width:0.5;" width="4" x="878.506" y="577.0663"/><text fill="#000000" font-family="sans-serif" font-size="14" font-style="italic" lengthAdjust="spacing" textLength="128" x="747.506" y="599.0614">«interactieve-shv»</text><text fill="#000000" font-family="sans-serif" font-size="14" lengthAdjust="spacing" textLength="62" x="780.506" y="615.3583">Workflow</text></g><g id="elem_CR"><path d="M738.506,722.5663 C738.506,712.5663 809.506,712.5663 809.506,712.5663 C809.506,712.5663 880.506,712.5663 880.506,722.5663 L880.506,747.8632 C880.506,757.8632 809.506,757.8632 809.506,757.8632 C809.506,757.8632 738.506,757.8632 738.506,747.8632 L738.506,722.5663 " fill="#F1F1F1" style="stroke:#181818;stroke-width:0.5;"/><path d="M738.506,722.5663 C738.506,732.5663 809.506,732.5663 809.506,732.5663 C809.506,732.5663 880.506,732.5663 880.506,722.5663 " fill="none" style="stroke:#181818;stroke-width:0.5;"/><text fill="#000000" font-family="sans-serif" font-size="14" lengthAdjust="spacing" textLength="122" x="748.506" y="749.5614">Container registry</text></g><g id="elem_Internet"><path d="M549.9048,843.3923 C552.4699,837.3556 556.44,836.7749 561.2825,840.8228 C564.7784,836.0185 569.94,834.887 572.9111,841.3638 C574.7261,835.9986 579.2867,835.7733 582.7483,839.602 C586.307,835.5742 592.0475,835.2444 593.9452,841.424 C597.3836,836.6508 601.7119,835.5022 605.2658,841.3003 C609.7798,835.827 613.2946,836.3674 616.5903,842.4902 C625.6793,845.1181 629.0501,849.4496 623.9285,858.5649 C629.6264,865.5046 625.3554,872.7781 617.4575,874.0286 C615.3176,879.4685 611.3279,880.9872 606.6267,876.9585 C603.4475,882.5671 599.0918,883.3003 594.5633,878.5262 C593.0369,884.6499 588.982,887.3508 583.2266,883.1862 C578.0498,887.2248 574.3118,884.9936 573.1367,879.1149 C567.7961,883.5464 563.2768,883.1631 560.4418,876.2989 C556.4028,879.881 552.2882,878.5956 550.6183,873.5892 C542.0745,869.9622 541.3186,863.1377 547.4814,856.7682 C541.2945,850.9938 541.7906,846.5756 549.9048,843.3923 " fill="#F1F1F1" style="stroke:#181818;stroke-width:0.5;"/><text fill="#000000" font-family="sans-serif" font-size="14" lengthAdjust="spacing" textLength="54" x="555.506" y="861.5614">Internet</text></g><g id="link_SA_AF"><path d="M331.816,243.0663 C341.606,243.0663 351.396,243.0663 361.186,243.0663 " fill="none" id="SA-backto-AF" style="stroke:#181818;stroke-width:1.0;"/><polygon fill="#181818" points="326.696,243.0663,335.696,247.0663,331.696,243.0663,335.696,239.0663,326.696,243.0663" style="stroke:#181818;stroke-width:1.0;"/></g><g id="link_Workflow_CR"><path d="M814.916,629.3163 C813.706,652.7363 812.056,684.6663 810.896,707.0963 " fill="none" id="Workflow-to-CR" style="stroke:#181818;stroke-width:1.0;"/><polygon fill="#181818" points="810.626,712.2963,815.083,703.5136,810.8828,707.3029,807.0935,703.1028,810.626,712.2963" style="stroke:#181818;stroke-width:1.0;"/><text fill="#000000" font-family="sans-serif" font-size="13" lengthAdjust="spacing" textLength="62" x="813.506" y="672.1332">Container</text></g><g id="link_CDN_SA"><path d="M440.916,147.9063 C403.966,166.0863 355.536,189.9063 316.636,209.0463 " fill="none" id="CDN-to-SA" style="stroke:#181818;stroke-width:1.0;"/><polygon fill="#181818" points="311.946,211.3563,321.7869,210.9594,316.4295,209.1431,318.2458,203.7858,311.946,211.3563" style="stroke:#181818;stroke-width:1.0;"/></g><g id="link_CDN_EP"><path d="M558.786,150.2163 C619.626,180.1463 707.806,223.5163 736.276,237.5263 " fill="none" id="CDN-backto-EP" style="stroke:#181818;stroke-width:1.0;"/><polygon fill="#181818" points="554.096,147.9063,560.4151,155.4607,558.5852,150.108,563.9378,148.278,554.096,147.9063" style="stroke:#181818;stroke-width:1.0;"/></g><g id="link_SMTP_Internet"><path d="M460.716,856.5663 C485.446,856.5663 510.166,856.5663 534.886,856.5663 " fill="none" id="SMTP-to-Internet" style="stroke:#181818;stroke-width:1.0;"/><polygon fill="#181818" points="540.166,856.5663,531.166,852.5663,535.166,856.5663,531.166,860.5663,540.166,856.5663" style="stroke:#181818;stroke-width:1.0;"/></g><g id="link_SA_Azure_Http"><path d="M331.856,270.5863 C426.416,301.0463 573.406,348.3963 611.326,360.6063 " fill="none" id="SA-backto-Azure_Http" style="stroke:#181818;stroke-width:1.0;"/><polygon fill="#181818" points="326.826,268.9763,334.153,275.5578,331.5821,270.5188,336.621,267.948,326.826,268.9763" style="stroke:#181818;stroke-width:1.0;"/></g><g id="link_AI_Azure_Http"><path d="M858.116,276.4663 C776.146,306.5163 662.076,348.3263 629.506,360.2663 " fill="none" id="AI-backto-Azure_Http" style="stroke:#181818;stroke-width:1.0;"/><polygon fill="#181818" points="862.976,274.6863,853.1478,274.0485,858.285,276.4168,855.9167,281.554,862.976,274.6863" style="stroke:#181818;stroke-width:1.0;"/></g><g id="link_EP_Azure_Http"><path d="M733.146,255.8863 C707.876,280.0363 650.896,334.5063 629.156,355.2963 " fill="none" id="EP-backto-Azure_Http" style="stroke:#181818;stroke-width:1.0;"/><polygon fill="#181818" points="736.916,252.2763,727.6473,255.6068,733.3028,255.7324,733.1771,261.3879,736.916,252.2763" style="stroke:#181818;stroke-width:1.0;"/></g><g id="link_AF_Azure_Http"><path d="M532.106,278.3763 C559.716,304.9863 595.916,339.8763 612.086,355.4463 " fill="none" id="AF-backto-Azure_Http" style="stroke:#181818;stroke-width:1.0;"/><polygon fill="#181818" points="528.436,274.8363,532.1381,283.9629,532.0352,278.307,537.6912,278.2042,528.436,274.8363" style="stroke:#181818;stroke-width:1.0;"/></g><g id="link_ISHV_CR"><path d="M492.6072,606.8648 C492.67,606.9268 492.733,606.989 492.7964,607.0514 C492.9231,607.1764 493.0511,607.3023 493.1803,607.4293 C493.4388,607.6834 493.7022,607.9416 493.9706,608.2037 C495.0439,609.2523 496.1954,610.3643 497.418,611.5282 C499.8633,613.8562 502.5932,616.392 505.5523,619.0438 C517.3885,629.6513 532.891,642.1163 548.506,650.5663 C608.866,683.2263 684.066,705.5863 738.226,718.8963 " fill="none" id="ISHV-backto-CR" style="stroke:#181818;stroke-width:1.0;"/><polygon fill="#181818" points="492.6072,606.8648,496.2017,616.0343,496.1654,610.3776,501.8221,610.3413,492.6072,606.8648" style="stroke:#181818;stroke-width:1.0;"/></g><g id="link_Azure_Http_Workflow"><path d="M634.376,372.9663 C652.486,383.0963 684.456,402.6763 706.506,425.5663 C748.016,468.6563 782.776,529.6563 801.536,565.9463 " fill="none" id="Azure_Http-backto-Workflow" style="stroke:#181818;stroke-width:1.0;stroke-dasharray:7.0,7.0;"/><polygon fill="#181818" points="629.656,370.3663,635.6005,378.2189,634.0329,372.7836,639.4682,371.2159,629.656,370.3663" style="stroke:#181818;stroke-width:1.0;"/><text fill="#000000" font-family="sans-serif" font-size="13" lengthAdjust="spacing" textLength="116" x="721.506" y="438.6332">Mailing bestanden</text></g><g id="link_Azure_Http_KBNL_Http"><path d="M606.296,366.7163 C567.666,370.6563 460.076,387.0863 406.506,450.5663 C371.246,492.3463 373.046,564.4363 374.776,588.4963 " fill="none" id="Azure_Http-backto-KBNL_Http" style="stroke:#181818;stroke-width:1.0;stroke-dasharray:7.0,7.0;"/><polygon fill="#181818" points="611.476,366.2263,602.1394,363.0913,606.4982,366.697,602.8925,371.0558,611.476,366.2263" style="stroke:#181818;stroke-width:1.0;"/></g><g id="link_Azure_Http_Afmelden"><path d="M620.506,378.9863 C620.506,421.6763 620.506,553.6263 620.506,588.2063 " fill="none" id="Azure_Http-backto-Afmelden" style="stroke:#181818;stroke-width:1.0;stroke-dasharray:7.0,7.0;"/><polygon fill="#181818" points="620.506,373.7863,616.506,382.7863,620.506,378.7863,624.506,382.7863,620.506,373.7863" style="stroke:#181818;stroke-width:1.0;"/><text fill="#000000" font-family="sans-serif" font-size="13" lengthAdjust="spacing" textLength="76" x="621.506" y="438.6332">Afmeldcode</text></g><g id="link_KBNL_Http_AIC"><path d="M361.986,607.4163 C329.936,628.3963 248.566,681.6563 202.206,712.0063 " fill="none" id="KBNL_Http-backto-AIC" style="stroke:#181818;stroke-width:1.0;stroke-dasharray:7.0,7.0;"/><polygon fill="#181818" points="366.346,604.5663,356.6221,606.1303,362.1574,607.2968,360.9909,612.8321,366.346,604.5663" style="stroke:#181818;stroke-width:1.0;"/></g><g id="link_KBNL_Http_ASQ"><path d="M375.506,611.6763 C375.506,639.3663 375.506,703.1663 375.506,725.8663 " fill="none" id="KBNL_Http-backto-ASQ" style="stroke:#181818;stroke-width:1.0;stroke-dasharray:7.0,7.0;"/><polygon fill="#181818" points="375.506,606.6363,371.506,615.6363,375.506,611.6363,379.506,615.6363,375.506,606.6363" style="stroke:#181818;stroke-width:1.0;"/></g><g id="link_AIC_ILogger"><path d="M170.366,758.2663 C171.996,777.7763 174.376,806.2663 176.146,827.3863 " fill="none" id="AIC-to-ILogger" style="stroke:#181818;stroke-width:1.0;stroke-dasharray:7.0,7.0;"/><polygon fill="none" points="183.136,826.9963,177.836,847.5063,169.186,828.1663,183.136,826.9963" style="stroke:#181818;stroke-width:1.0;"/></g><g id="link_APP_SMTP"><path d="M407.166,856.5663 C417.196,856.5663 427.226,856.5663 437.256,856.5663 " fill="none" id="APP-to-SMTP" style="stroke:#181818;stroke-width:1.0;"/><polygon fill="#181818" points="442.496,856.5663,433.496,852.5663,437.496,856.5663,433.496,860.5663,442.496,856.5663" style="stroke:#181818;stroke-width:1.0;"/></g><g id="link_ASQ_APP"><path d="M369.476,748.9363 C361.026,766.9663 345.406,800.2863 333.876,824.8963 " fill="none" id="ASQ-backto-APP" style="stroke:#181818;stroke-width:1.0;"/><polygon fill="#181818" points="371.656,744.2763,364.2242,750.7391,369.5408,748.8069,371.4731,754.1235,371.656,744.2763" style="stroke:#181818;stroke-width:1.0;"/></g><g id="link_ILogger_APP"><path d="M192.786,856.5663 C205.826,856.5663 218.866,856.5663 231.906,856.5663 " fill="none" id="ILogger-backto-APP" style="stroke:#181818;stroke-width:1.0;"/><polygon fill="#181818" points="187.596,856.5663,196.596,860.5663,192.596,856.5663,196.596,852.5663,187.596,856.5663" style="stroke:#181818;stroke-width:1.0;"/></g><g id="link_APP_DA"><path d="M319.506,888.3363 C319.506,912.7863 319.506,945.7563 319.506,963.8363 " fill="none" id="APP-to-DA" style="stroke:#181818;stroke-width:1.0;"/><polygon fill="#181818" points="319.506,968.9463,323.506,959.9463,319.506,963.9463,315.506,959.9463,319.506,968.9463" style="stroke:#181818;stroke-width:1.0;"/></g><g id="link_DA_Sophion"><path d="M310.406,984.3763 C292.856,995.1563 254.556,1021.4863 237.506,1055.0663 C231.046,1067.7863 228.866,1083.5163 228.386,1096.6863 " fill="none" id="DA-to-Sophion" style="stroke:#181818;stroke-width:1.0;"/><polygon fill="#181818" points="228.276,1101.7863,232.4557,1092.8683,228.3763,1096.7873,224.4573,1092.7079,228.276,1101.7863" style="stroke:#181818;stroke-width:1.0;"/><text fill="#000000" font-family="sans-serif" font-size="13" lengthAdjust="spacing" textLength="98" x="238.506" y="1068.1332">TCP/IP:1433 RW</text></g><g id="link_DA_Allegro"><path d="M322.336,987.2463 C329.546,1008.0763 348.826,1063.8063 360.386,1097.2063 " fill="none" id="DA-to-Allegro" style="stroke:#181818;stroke-width:1.0;"/><polygon fill="#181818" points="362.036,1101.9663,362.8515,1092.1513,360.3906,1097.2448,355.2971,1094.7839,362.036,1101.9663" style="stroke:#181818;stroke-width:1.0;"/><text fill="#000000" font-family="sans-serif" font-size="13" lengthAdjust="spacing" textLength="87" x="350.506" y="1068.1332">TCP/IP:1433 R</text></g></g></svg>